<?xml version="1.0" encoding="UTF-8" standalone="no"?>
<svg
   width="64"
   height="64"
   viewBox="0 0 64 64"
   aria-label="Connected favicon"
   version="1.1"
   id="svg3"
   sodipodi:docname="serenada.svg"
   inkscape:version="1.4.3 (0d15f75, 2025-12-25)"
   xmlns:inkscape="http://www.inkscape.org/namespaces/inkscape"
   xmlns:sodipodi="http://sodipodi.sourceforge.net/DTD/sodipodi-0.dtd"
   xmlns="http://www.w3.org/2000/svg"
   xmlns:svg="http://www.w3.org/2000/svg">
  <sodipodi:namedview
     id="namedview3"
     pagecolor="#ffffff"
     bordercolor="#000000"
     borderopacity="0.25"
     inkscape:showpageshadow="2"
     inkscape:pageopacity="0.0"
     inkscape:pagecheckerboard="0"
     inkscape:deskcolor="#d1d1d1"
     inkscape:zoom="5.7497343"
     inkscape:cx="51.567601"
     inkscape:cy="26.696886"
     inkscape:window-width="1728"
     inkscape:window-height="914"
     inkscape:window-x="773"
     inkscape:window-y="1478"
     inkscape:window-maximized="0"
     inkscape:current-layer="svg3" />
  <defs
     id="defs2">
    <linearGradient
       id="bg"
       x1="2"
       y1="2"
       x2="62"
       y2="62"
       gradientUnits="userSpaceOnUse"
       gradientTransform="matrix(0.86215963,0,0,0.88268001,4.4108903,3.7542385)">
      <stop
         offset="0%"
         stop-color="#4F7CFF"
         id="stop1" />
      <stop
         offset="100%"
         stop-color="#8B5CF6"
         id="stop2" />
    </linearGradient>
  </defs>
  <!-- Rounded square background -->
  <path
     id="rect2"
     style="fill:url(#bg);stroke-width:0.872365"
     d="m 18.204792,5.5202739 c -6.686911,0 -12.068819,5.5544071 -12.068819,12.4556431 v 28.048166 c 0,6.901235 5.381909,12.455644 12.068819,12.455644 h 27.590416 c 6.686911,0 12.068819,-5.554409 12.068819,-12.455644 V 40.880716 L 47.585183,34.959692 c -0.01647,-0.01898 -0.03154,-0.03681 -0.04769,-0.05578 v 4.54782 c 0,2.431903 -1.897596,4.390318 -4.253974,4.390318 H 22.016835 c -2.356377,0 -4.253973,-1.958415 -4.253973,-4.390318 V 24.54827 c 0,-2.431902 1.897596,-4.390318 4.253973,-4.390318 h 21.266684 c 2.356378,0 4.253974,1.958416 4.253974,4.390318 v 4.54782 c 0.01615,-0.01898 0.03122,-0.03681 0.04769,-0.05578 l 10.278844,-5.921024 v -5.143367 c 0,-6.901236 -5.381908,-12.4556431 -12.068819,-12.4556431 z" />
  <!-- Camera body (flatter, wider) -->
  <!-- Camera lens (smaller, tighter) -->
  <path
     id="path1"
     style="display:inline;fill:#ffffff;stroke-width:1.25457"
     d="m 22.016835,20.157952 c -2.356377,0 -4.253973,1.958416 -4.253973,4.390318 v 14.90346 c 0,2.431903 1.897596,4.390318 4.253973,4.390318 h 21.266684 c 2.356378,0 4.253974,-1.958415 4.253974,-4.390318 v -4.54782 c 0.01615,0.01897 0.03122,0.03681 0.04769,0.05579 l 10.278844,5.921024 V 23.119284 L 47.58518,29.040308 c -0.01647,0.01897 -0.03154,0.03681 -0.04769,0.05578 v -4.547819 c 0,-2.431903 -1.897596,-4.390319 -4.253974,-4.390319 z" />
</svg>
